<?xml version="1.0" standalone="no"?><!DOCTYPE svg PUBLIC "-//W3C//DTD SVG 1.1//EN" "http://www.w3.org/Graphics/SVG/1.1/DTD/svg11.dtd"><svg t="1709107504697" class="icon" viewBox="0 0 1024 1024" version="1.1" xmlns="http://www.w3.org/2000/svg" p-id="6241" xmlns:xlink="http://www.w3.org/1999/xlink" width="40" height="40"><path d="M744.296296 128a151.703704 151.703704 0 0 1 151.703704 151.703704v344.613926a75.851852 75.851852 0 0 1-75.851852 75.851851h-38.589629V373.210074a130.787556 130.787556 0 0 0-130.768593-130.768593L323.830519 242.422519V203.851852a75.851852 75.851852 0 0 1 75.851851-75.851852h344.613926z m-93.50637 179.825778a65.384296 65.384296 0 0 1 65.384296 65.384296v10.467556a75.851852 75.851852 0 0 0-72.059259-75.757037l-3.792593-0.094815h10.467556z" fill="#0CCA8A" fill-opacity=".5" p-id="6242"></path><path d="M144.004741 307.825778m75.851852 0l420.465777 0q75.851852 0 75.851852 75.851852l0 420.465777q0 75.851852-75.851852 75.851852l-420.465777 0q-75.851852 0-75.851852-75.851852l0-420.465777q0-75.851852 75.851852-75.851852Z" fill="#0CCA8A" p-id="6243"></path></svg>